<svg xmlns="http://www.w3.org/2000/svg" viewBox="0 0 400 200" width="400" height="200" preserveAspectRatio="none">
  <!-- Signature element: nautical chart contour lines — tileable wave pattern -->
  <path d="M0 40 Q50 20 100 35 Q150 50 200 35 Q250 20 300 35 Q350 50 400 35" stroke="#1B6B93" stroke-width="1" fill="none" opacity="0.08"/>
  <path d="M0 60 Q50 40 100 55 Q150 70 200 55 Q250 40 300 55 Q350 70 400 55" stroke="#1B6B93" stroke-width="1" fill="none" opacity="0.06"/>
  <path d="M0 80 Q50 60 100 75 Q150 90 200 75 Q250 60 300 75 Q350 90 400 75" stroke="#1B6B93" stroke-width="1" fill="none" opacity="0.10"/>
  <path d="M0 100 Q50 80 100 95 Q150 110 200 95 Q250 80 300 95 Q350 110 400 95" stroke="#0C2D48" stroke-width="1" fill="none" opacity="0.07"/>
  <path d="M0 120 Q50 100 100 115 Q150 130 200 115 Q250 100 300 115 Q350 130 400 115" stroke="#1B6B93" stroke-width="1" fill="none" opacity="0.05"/>
  <path d="M0 140 Q50 120 100 135 Q150 150 200 135 Q250 120 300 135 Q350 150 400 135" stroke="#0C2D48" stroke-width="1" fill="none" opacity="0.08"/>
  <path d="M0 160 Q50 140 100 155 Q150 170 200 155 Q250 140 300 155 Q350 170 400 155" stroke="#1B6B93" stroke-width="1" fill="none" opacity="0.06"/>
  <path d="M0 180 Q50 160 100 175 Q150 190 200 175 Q250 160 300 175 Q350 190 400 175" stroke="#0C2D48" stroke-width="1" fill="none" opacity="0.04"/>
</svg>